<svg width="48" height="48" viewBox="0 0 48 48" fill="none" xmlns="http://www.w3.org/2000/svg">
<g clip-path="url(#clip0)">
<path d="M20.1267 37.7651C17.799 37.7651 15.9053 39.6589 15.9053 41.9866C15.9053 44.3143 17.799 46.2081 20.1267 46.2081C22.4545 46.2081 24.3482 44.3143 24.3482 41.9866C24.3481 39.6589 22.4544 37.7651 20.1267 37.7651ZM20.1267 43.8508C19.0987 43.8508 18.2623 43.0144 18.2623 41.9864C18.2623 40.9584 19.0988 40.122 20.1267 40.122C21.1547 40.122 21.9911 40.9584 21.9911 41.9864C21.9911 43.0146 21.1547 43.8508 20.1267 43.8508Z" fill="#F0533D"/>
<path d="M34.9341 37.7651C32.6064 37.7651 30.7126 39.6589 30.7126 41.9866C30.7126 44.3143 32.6064 46.2081 34.9341 46.2081C37.2618 46.2081 39.1556 44.3143 39.1556 41.9866C39.1555 39.6589 37.2617 37.7651 34.9341 37.7651ZM34.9341 43.8508C33.9061 43.8508 33.0697 43.0144 33.0697 41.9864C33.0697 40.9584 33.9061 40.122 34.9341 40.122C35.9622 40.122 36.7985 40.9584 36.7985 41.9864C36.7985 43.0146 35.9621 43.8508 34.9341 43.8508Z" fill="#F0533D"/>
<path d="M35.9734 15.5395H19.0844C18.4335 15.5395 17.9059 16.0671 17.9059 16.7181C17.9059 17.369 18.4336 17.8966 19.0844 17.8966H35.9734C36.6243 17.8966 37.1519 17.369 37.1519 16.7181C37.1519 16.0671 36.6243 15.5395 35.9734 15.5395Z" fill="#F0533D"/>
<path d="M35.0542 21.6596H20.0037C19.3528 21.6596 18.8252 22.1872 18.8252 22.8381C18.8252 23.489 19.3528 24.0166 20.0037 24.0166H35.0541C35.705 24.0166 36.2326 23.489 36.2326 22.8381C36.2326 22.1873 35.705 21.6596 35.0542 21.6596Z" fill="#F0533D"/>
<path d="M47.4695 10.2885C47.0201 9.7369 46.3541 9.42059 45.6424 9.42059H8.93236L8.19098 5.82162C8.0362 5.07087 7.52414 4.4405 6.82092 4.13515L1.64807 1.88984C1.05089 1.63043 0.356855 1.90446 0.0978235 2.50146C-0.161489 3.09865 0.112542 3.79278 0.709449 4.05181L5.88239 6.29721L11.5848 33.9779C11.8095 35.0681 12.7803 35.8593 13.8934 35.8593H42.1277C42.7786 35.8593 43.3063 35.3317 43.3063 34.6808C43.3063 34.0299 42.7786 33.5022 42.1277 33.5022H13.8935L13.1999 30.1351H42.346C43.459 30.1351 44.43 29.3439 44.6545 28.2537L47.951 12.253C48.0946 11.5562 47.9191 10.8401 47.4695 10.2885ZM42.346 27.7782H12.7143L9.41798 11.7776L45.6423 11.7777L42.346 27.7782Z" fill="#F0533D"/>
</g>
<defs>
<clipPath id="clip0">
<rect width="48" height="48" fill="white"/>
</clipPath>
</defs>
</svg>
