<svg width="120" height="120" viewBox="0 0 120 120" fill="none" xmlns="http://www.w3.org/2000/svg">
<circle cx="60" cy="60" r="60" fill="white" fill-opacity="0.9"/>
<g clip-path="url(#clip0)">
<path d="M56.1267 73.7651C53.799 73.7651 51.9053 75.6589 51.9053 77.9866C51.9053 80.3143 53.799 82.2081 56.1267 82.2081C58.4545 82.2081 60.3482 80.3143 60.3482 77.9866C60.3481 75.6589 58.4544 73.7651 56.1267 73.7651ZM56.1267 79.8508C55.0987 79.8508 54.2623 79.0144 54.2623 77.9864C54.2623 76.9584 55.0988 76.122 56.1267 76.122C57.1547 76.122 57.9911 76.9584 57.9911 77.9864C57.9911 79.0146 57.1547 79.8508 56.1267 79.8508Z" fill="#F0533D"/>
<path d="M70.9341 73.7651C68.6064 73.7651 66.7126 75.6589 66.7126 77.9866C66.7126 80.3143 68.6064 82.2081 70.9341 82.2081C73.2618 82.2081 75.1556 80.3143 75.1556 77.9866C75.1555 75.6589 73.2617 73.7651 70.9341 73.7651ZM70.9341 79.8508C69.9061 79.8508 69.0697 79.0144 69.0697 77.9864C69.0697 76.9584 69.9061 76.122 70.9341 76.122C71.9622 76.122 72.7985 76.9584 72.7985 77.9864C72.7985 79.0146 71.9621 79.8508 70.9341 79.8508Z" fill="#F0533D"/>
<path d="M71.9734 51.5395H55.0844C54.4335 51.5395 53.9059 52.0671 53.9059 52.7181C53.9059 53.369 54.4336 53.8966 55.0844 53.8966H71.9734C72.6243 53.8966 73.1519 53.369 73.1519 52.7181C73.1519 52.0671 72.6243 51.5395 71.9734 51.5395Z" fill="#F0533D"/>
<path d="M71.0542 57.6596H56.0037C55.3528 57.6596 54.8252 58.1872 54.8252 58.8381C54.8252 59.489 55.3528 60.0166 56.0037 60.0166H71.0541C71.705 60.0166 72.2326 59.489 72.2326 58.8381C72.2326 58.1873 71.705 57.6596 71.0542 57.6596Z" fill="#F0533D"/>
<path d="M83.4695 46.2885C83.0201 45.7369 82.3541 45.4206 81.6424 45.4206H44.9324L44.191 41.8216C44.0362 41.0709 43.5241 40.4405 42.8209 40.1352L37.6481 37.8898C37.0509 37.6304 36.3569 37.9045 36.0978 38.5015C35.8385 39.0987 36.1125 39.7928 36.7094 40.0518L41.8824 42.2972L47.5848 69.9779C47.8095 71.0681 48.7803 71.8593 49.8934 71.8593H78.1277C78.7786 71.8593 79.3063 71.3317 79.3063 70.6808C79.3063 70.0299 78.7786 69.5022 78.1277 69.5022H49.8935L49.1999 66.1351H78.346C79.459 66.1351 80.43 65.3439 80.6545 64.2537L83.951 48.253C84.0946 47.5562 83.9191 46.8401 83.4695 46.2885ZM78.346 63.7782H48.7143L45.418 47.7776L81.6423 47.7777L78.346 63.7782Z" fill="#F0533D"/>
</g>
<defs>
<clipPath id="clip0">
<rect width="48" height="48" fill="white" transform="translate(36 36)"/>
</clipPath>
</defs>
</svg>
