<svg width="124" height="29" viewBox="0 0 124 29" fill="none" xmlns="http://www.w3.org/2000/svg">
<path d="M16.1719 8.34766H22.2188L13.4648 17.207L18.4746 28H12.5684L9.35156 20.6172L7.24219 21.8828L5.94141 28H0.650391L6.45117 0.648438H11.7422L9.14062 12.8477C9.04688 13.3281 8.87695 14.0137 8.63086 14.9043L8.13867 16.6973H8.20898L16.1719 8.34766ZM26.1211 3.74219C26.1211 2.72266 26.3965 1.95508 26.9473 1.43945C27.5098 0.912109 28.3008 0.648438 29.3203 0.648438C30.1758 0.648438 30.8262 0.830078 31.2715 1.19336C31.7168 1.55664 31.9395 2.07812 31.9395 2.75781C31.9395 3.69531 31.6816 4.45703 31.166 5.04297C30.6504 5.61719 29.8535 5.9043 28.7754 5.9043C27.0059 5.9043 26.1211 5.18359 26.1211 3.74219ZM26.4023 28H21.1113L25.2773 8.34766H30.5684L26.4023 28ZM48.3223 28H43.0312L45.4395 16.5215C45.627 15.7246 45.7207 15.0273 45.7207 14.4297C45.7207 12.9883 45.0879 12.2676 43.8223 12.2676C42.7441 12.2676 41.7656 12.9355 40.8867 14.2715C40.0078 15.6074 39.3164 17.4707 38.8125 19.8613L37.0898 28H31.7988L35.9648 8.34766H40.0078L39.6387 11.9863H39.7441C41.4551 9.31445 43.5352 7.97852 45.9844 7.97852C47.6016 7.97852 48.8496 8.4707 49.7285 9.45508C50.6191 10.4277 51.0645 11.8223 51.0645 13.6387C51.0645 14.4941 50.9297 15.5488 50.6602 16.8027L48.3223 28ZM61.9453 24.0801C62.707 24.0801 63.6562 23.875 64.793 23.4648V27.4199C63.4922 28.041 61.9336 28.3516 60.1172 28.3516C58.3594 28.3516 57.0645 27.9824 56.2324 27.2441C55.4121 26.5059 55.002 25.3633 55.002 23.8164C55.002 23.2305 55.0723 22.5742 55.2129 21.8477L57.2344 12.373H54.5625L55.0723 9.78906L58.5176 8.3125L60.8379 4.16406H64.248L63.3867 8.34766H68.3613L67.4824 12.373H62.5254L60.5039 21.8477C60.4336 22.1992 60.3984 22.5098 60.3984 22.7793C60.3984 23.6465 60.9141 24.0801 61.9453 24.0801ZM74.8125 28.3516C73.0898 28.3516 71.7305 27.7305 70.7344 26.4883C69.75 25.2344 69.2578 23.4824 69.2578 21.2324C69.2578 18.9121 69.6797 16.7031 70.5234 14.6055C71.3672 12.4961 72.4746 10.8672 73.8457 9.71875C75.2168 8.55859 76.7227 7.97852 78.3633 7.97852C79.5 7.97852 80.4785 8.22461 81.2988 8.7168C82.1309 9.20898 82.7754 9.92383 83.2324 10.8613H83.373L84.375 8.34766H88.4531L84.2695 28H80.2441L80.4902 25.4512H80.4199C78.8496 27.3848 76.9805 28.3516 74.8125 28.3516ZM76.8867 24.0801C77.6953 24.0801 78.4746 23.6875 79.2246 22.9023C79.9746 22.1172 80.5781 21.0566 81.0352 19.7207C81.4922 18.373 81.7207 16.8496 81.7207 15.1504C81.7207 14.3184 81.4922 13.6328 81.0352 13.0938C80.5898 12.543 79.998 12.2676 79.2598 12.2676C78.4629 12.2676 77.7012 12.6895 76.9746 13.5332C76.2598 14.377 75.6855 15.4902 75.252 16.873C74.8301 18.2559 74.6191 19.627 74.6191 20.9863C74.6191 22.0176 74.8125 22.791 75.1992 23.3066C75.5977 23.8223 76.1602 24.0801 76.8867 24.0801ZM103.887 7.97852C104.578 7.97852 105.141 8.04297 105.574 8.17188L104.414 13.2695C103.887 13.082 103.301 12.9883 102.656 12.9883C101.297 12.9883 100.102 13.5273 99.0703 14.6055C98.0508 15.6719 97.3242 17.207 96.8906 19.2109L95.0273 28H89.7363L93.9023 8.34766H97.9453L97.5762 11.9863H97.6816C99.4043 9.31445 101.473 7.97852 103.887 7.97852ZM118.389 15.7656C118.389 13.457 117.551 12.3027 115.875 12.3027C114.996 12.3027 114.205 12.6602 113.502 13.375C112.811 14.0898 112.242 15.1387 111.797 16.5215C111.363 17.9043 111.146 19.3281 111.146 20.793C111.146 22.9609 112.025 24.0449 113.783 24.0449C114.662 24.0449 115.453 23.6875 116.156 22.9727C116.859 22.2461 117.404 21.2441 117.791 19.9668C118.189 18.6777 118.389 17.2773 118.389 15.7656ZM123.715 15.7656C123.715 18.2383 123.299 20.4297 122.467 22.3398C121.646 24.25 120.457 25.7324 118.898 26.7871C117.34 27.8301 115.488 28.3516 113.344 28.3516C111.059 28.3516 109.23 27.666 107.859 26.2949C106.5 24.9121 105.82 23.0781 105.82 20.793C105.82 18.2969 106.236 16.0762 107.068 14.1309C107.912 12.1738 109.125 10.6621 110.707 9.5957C112.289 8.51758 114.141 7.97852 116.262 7.97852C118.559 7.97852 120.375 8.66992 121.711 10.0527C123.047 11.4355 123.715 13.3398 123.715 15.7656Z" fill="#F0533D"/>
</svg>
