<svg width="24" height="24" viewBox="0 0 24 24" fill="none" xmlns="http://www.w3.org/2000/svg">
<g clip-path="url(#clip0)">
<path d="M23.7913 22.7761L17.9589 16.9437C19.5234 15.145 20.4706 12.7982 20.4706 10.2333C20.4706 4.58714 15.8782 0 10.2374 0C4.59126 0 0.00411606 4.59246 0.00411606 10.2333C0.00411606 15.8741 4.59658 20.4665 10.2374 20.4665C12.8023 20.4665 15.1491 19.5193 16.9478 17.9548L22.7802 23.7871C22.9185 23.9255 23.1048 24 23.2857 24C23.4666 24 23.6529 23.9308 23.7913 23.7871C24.068 23.5104 24.068 23.0528 23.7913 22.7761ZM1.4356 10.2333C1.4356 5.38004 5.38416 1.43681 10.2321 1.43681C15.0853 1.43681 19.0285 5.38537 19.0285 10.2333C19.0285 15.0812 15.0853 19.035 10.2321 19.035C5.38416 19.035 1.4356 15.0865 1.4356 10.2333Z" fill="#F0533D"/>
</g>
<defs>
<clipPath id="clip0">
<rect width="24" height="24" fill="white"/>
</clipPath>
</defs>
</svg>
