<svg width="36" height="36" viewBox="0 0 36 36" fill="none" xmlns="http://www.w3.org/2000/svg">
<g clip-path="url(#clip0)">
<path d="M15.0951 28.3239C13.3493 28.3239 11.929 29.7442 11.929 31.49C11.929 33.2357 13.3493 34.6561 15.0951 34.6561C16.8408 34.6561 18.2612 33.2357 18.2612 31.49C18.2611 29.7442 16.8408 28.3239 15.0951 28.3239ZM15.0951 32.8881C14.324 32.8881 13.6968 32.2608 13.6968 31.4898C13.6968 30.7188 14.3241 30.0915 15.0951 30.0915C15.866 30.0915 16.4934 30.7188 16.4934 31.4898C16.4934 32.2609 15.866 32.8881 15.0951 32.8881Z" fill="#F0533D"/>
<path d="M26.2006 28.3239C24.4548 28.3239 23.0345 29.7442 23.0345 31.49C23.0345 33.2357 24.4548 34.6561 26.2006 34.6561C27.9464 34.6561 29.3667 33.2357 29.3667 31.49C29.3666 29.7442 27.9463 28.3239 26.2006 28.3239ZM26.2006 32.8881C25.4295 32.8881 24.8023 32.2608 24.8023 31.4898C24.8023 30.7188 25.4296 30.0915 26.2006 30.0915C26.9716 30.0915 27.5989 30.7188 27.5989 31.4898C27.5989 32.2609 26.9716 32.8881 26.2006 32.8881Z" fill="#F0533D"/>
<path d="M26.9801 11.6546H14.3133C13.8252 11.6546 13.4294 12.0504 13.4294 12.5385C13.4294 13.0267 13.8252 13.4224 14.3133 13.4224H26.9801C27.4682 13.4224 27.864 13.0267 27.864 12.5385C27.864 12.0503 27.4682 11.6546 26.9801 11.6546Z" fill="#F0533D"/>
<path d="M26.2906 16.2447H15.0028C14.5146 16.2447 14.1189 16.6404 14.1189 17.1286C14.1189 17.6168 14.5146 18.0125 15.0028 18.0125H26.2906C26.7787 18.0125 27.1745 17.6168 27.1745 17.1286C27.1745 16.6405 26.7787 16.2447 26.2906 16.2447Z" fill="#F0533D"/>
<path d="M35.6021 7.71639C35.2651 7.30267 34.7656 7.06543 34.2318 7.06543H6.69927L6.14324 4.36621C6.02715 3.80314 5.6431 3.33036 5.11569 3.10136L1.23606 1.41737C0.788165 1.22282 0.267641 1.42834 0.0733676 1.87609C-0.121117 2.32398 0.0844067 2.84457 0.532086 3.03885L4.41179 4.7229L8.68862 25.4834C8.85709 26.301 9.58524 26.8945 10.4201 26.8945H31.5958C32.084 26.8945 32.4797 26.4988 32.4797 26.0106C32.4797 25.5224 32.084 25.1267 31.5958 25.1267H10.4201L9.89989 22.6013H31.7595C32.5942 22.6013 33.3225 22.0079 33.4909 21.1903L35.9633 9.18971C36.0709 8.66715 35.9393 8.13003 35.6021 7.71639ZM31.7595 20.8337H9.53574L7.06349 8.83316L34.2318 8.83323L31.7595 20.8337Z" fill="#F0533D"/>
</g>
<defs>
<clipPath id="clip0">
<rect width="36" height="36" fill="white"/>
</clipPath>
</defs>
</svg>
