<svg width="36" height="36" viewBox="0 0 36 36" fill="none" xmlns="http://www.w3.org/2000/svg">
<path d="M36 18C36 8.07513 27.9249 0 18 0C8.07513 0 0 8.07513 0 18C0 23.2423 2.25425 27.9674 5.84247 31.2598L5.82545 31.2748L6.40931 31.7671C6.44727 31.7991 6.48851 31.8253 6.52647 31.8567C6.83673 32.114 7.15811 32.3581 7.48538 32.5944C7.59142 32.671 7.69745 32.7476 7.80545 32.8222C8.15498 33.063 8.51367 33.2915 8.88022 33.5081C8.96007 33.5553 9.04058 33.6011 9.12109 33.6469C9.52233 33.8753 9.93207 34.0907 10.3516 34.2884C10.3824 34.3028 10.4138 34.3158 10.4446 34.3302C11.8119 34.9658 13.2716 35.4325 14.798 35.7081C14.8379 35.7153 14.8778 35.7225 14.9184 35.7297C15.3923 35.8115 15.8714 35.8769 16.3564 35.9208C16.4153 35.926 16.4743 35.9293 16.5338 35.9345C17.0169 35.9745 17.5052 36 18 36C18.4903 36 18.974 35.9745 19.4544 35.9358C19.5153 35.9306 19.5761 35.9273 19.637 35.9221C20.1181 35.8783 20.5933 35.8148 21.0626 35.7342C21.1032 35.7271 21.1444 35.7199 21.185 35.712C22.6885 35.4423 24.1272 34.9861 25.4769 34.3669C25.5266 34.344 25.577 34.3224 25.6268 34.2988C26.0306 34.109 26.4253 33.9041 26.8121 33.6862C26.9084 33.6319 27.0039 33.5769 27.0995 33.5206C27.4516 33.3131 27.7979 33.0964 28.1343 32.866C28.2554 32.7836 28.3739 32.6965 28.4937 32.6101C28.781 32.4033 29.0631 32.1899 29.3374 31.9667C29.3983 31.9176 29.4637 31.875 29.5233 31.8246L30.1222 31.3246L30.1045 31.3095C33.7241 28.0159 36 23.2691 36 18ZM1.30909 18C1.30909 8.79644 8.79644 1.30909 18 1.30909C27.2036 1.30909 34.6909 8.79644 34.6909 18C34.6909 22.9595 32.5145 27.4183 29.069 30.4776C28.8766 30.3447 28.6828 30.2256 28.4845 30.1261L22.9425 27.3554C22.445 27.1067 22.1361 26.6066 22.1361 26.0509V24.1154C22.2644 23.957 22.3999 23.7777 22.5399 23.5807C23.2573 22.5674 23.8326 21.4403 24.2522 20.2274C25.0815 19.8334 25.6169 19.0073 25.6169 18.0746V15.7543C25.6169 15.1868 25.4088 14.6363 25.0364 14.2036V11.1489C25.0704 10.8092 25.1908 8.892 23.8039 7.31062C22.5975 5.93345 20.645 5.23636 18 5.23636C15.355 5.23636 13.4025 5.93345 12.1961 7.30996C10.8092 8.89134 10.9296 10.8085 10.9636 11.1482V14.203C10.5919 14.6356 10.3831 15.1861 10.3831 15.7536V18.074C10.3831 18.7946 10.7064 19.4668 11.2601 19.9204C11.7903 21.9973 12.8815 23.5695 13.2847 24.1023V25.9966C13.2847 26.5307 12.9934 27.0216 12.5241 27.2782L7.34858 30.1012C7.18364 30.1909 7.02 30.2956 6.85636 30.4128C3.45338 27.3548 1.30909 22.9235 1.30909 18ZM27.7913 31.5046C27.5623 31.6708 27.3292 31.8319 27.0929 31.9857C26.9843 32.0564 26.8763 32.127 26.7657 32.1958C26.4567 32.3869 26.1425 32.5689 25.8218 32.7391C25.7511 32.7764 25.6798 32.8117 25.6084 32.8484C24.8714 33.226 24.1089 33.5507 23.3254 33.8145C23.2979 33.8236 23.2704 33.8335 23.2423 33.8426C22.8319 33.9788 22.4162 34.0998 21.996 34.2039C21.9947 34.2039 21.9934 34.2046 21.9921 34.2046C21.5679 34.3093 21.1385 34.3964 20.7065 34.4677C20.6948 34.4697 20.683 34.4723 20.6712 34.4743C20.2647 34.5404 19.855 34.5881 19.4439 34.6241C19.3713 34.6307 19.2986 34.6353 19.2253 34.6405C18.8188 34.6713 18.4104 34.6909 18 34.6909C17.585 34.6909 17.1713 34.6706 16.7596 34.6399C16.6883 34.6346 16.6169 34.63 16.5463 34.6235C16.1313 34.5868 15.7183 34.5377 15.3092 34.471C15.2908 34.4677 15.2725 34.4644 15.2542 34.4612C14.3889 34.3165 13.5373 34.1038 12.708 33.8256C12.6825 33.8171 12.6563 33.8079 12.6308 33.7994C12.2191 33.6593 11.8119 33.5042 11.412 33.3327C11.4094 33.3314 11.4061 33.3301 11.4035 33.3288C11.0252 33.1658 10.654 32.9852 10.2875 32.7947C10.2397 32.7698 10.1913 32.7463 10.1441 32.7207C9.80967 32.542 9.4824 32.3489 9.15971 32.1473C9.06414 32.0871 8.96924 32.0262 8.87498 31.9647C8.57782 31.7703 8.28458 31.5681 7.9992 31.354C7.96974 31.3318 7.9416 31.3082 7.91214 31.286C7.93309 31.2742 7.95404 31.2624 7.97498 31.2506L13.1505 28.4276C14.0407 27.9419 14.5937 27.0105 14.5937 25.9966L14.5931 23.6389L14.4425 23.4569C14.4281 23.4406 13.013 21.7191 12.4783 19.3883L12.4187 19.1291L12.1955 18.9844C11.8807 18.7809 11.6921 18.4405 11.6921 18.0733V15.7529C11.6921 15.4486 11.8211 15.1652 12.0567 14.9524L12.2727 14.7574V11.1116L12.2668 11.0258C12.2649 11.0101 12.0718 9.43593 13.1806 8.172C14.1271 7.09331 15.749 6.54545 18 6.54545C20.2425 6.54545 21.8592 7.08873 22.8083 8.15956C23.9158 9.4104 23.7345 11.014 23.7332 11.0271L23.7273 14.7587L23.9433 14.9537C24.1783 15.1658 24.3079 15.4499 24.3079 15.7543V18.0746C24.3079 18.5413 23.9904 18.9648 23.5348 19.1055L23.2095 19.2057L23.1048 19.5297C22.7186 20.7295 22.1688 21.8376 21.4711 22.8233C21.2996 23.0655 21.1327 23.2802 20.9893 23.4445L20.827 23.6297V26.0509C20.827 27.106 21.4135 28.0551 22.3573 28.5264L27.8993 31.2971C27.9347 31.3148 27.9694 31.3331 28.0041 31.3514C27.934 31.4044 27.862 31.4535 27.7913 31.5046Z" fill="#F0533D"/>
</svg>
